<?xml version="1.0" encoding="utf-8"?>
<!-- Generator: Adobe Illustrator 18.0.0, SVG Export Plug-In . SVG Version: 6.00 Build 0)  -->
<!DOCTYPE svg PUBLIC "-//W3C//DTD SVG 1.1//EN" "http://www.w3.org/Graphics/SVG/1.1/DTD/svg11.dtd">
<svg version="1.1" id="Layer_1" xmlns="http://www.w3.org/2000/svg" xmlns:xlink="http://www.w3.org/1999/xlink" x="0px" y="0px"
	 viewBox="0 0 24 24" enable-background="new 0 0 24 24" xml:space="preserve">
<path d="M12.7,19.6c-2.1,2.1-5.6,2.1-7.8,0s-2.1-5.6,0-7.8l7.4-7.4c1.6-1.6,4.1-1.6,5.7,0c1.6,1.6,1.6,4.1,0,5.7l-6,6
	c-1,1-2.6,1-3.5,0s-1-2.6,0-3.5l5.3-5.3l1.1,1.1l-5.3,5.3c-0.4,0.4-0.4,1,0,1.4s1,0.4,1.4,0l6-6c1-1,1-2.6,0-3.5s-2.6-1-3.5,0
	L6,12.9c-1.6,1.6-1.6,4.1,0,5.7c1.6,1.6,4.1,1.6,5.7,0l6.7-6.7l1.1,1.1L12.7,19.6z"/>
</svg>
