<?xml version="1.0" encoding="utf-8"?>
<!-- Generator: Adobe Illustrator 16.0.2, SVG Export Plug-In . SVG Version: 6.00 Build 0)  -->
<!DOCTYPE svg PUBLIC "-//W3C//DTD SVG 1.1//EN" "http://www.w3.org/Graphics/SVG/1.1/DTD/svg11.dtd">
<svg version="1.1" id="Layer_1" xmlns="http://www.w3.org/2000/svg" xmlns:xlink="http://www.w3.org/1999/xlink" x="0px" y="0px"
	 width="714.071px" height="306.177px" viewBox="0 0 714.071 306.177" enable-background="new 0 0 714.071 306.177"
	 xml:space="preserve">
<g>
	<g>
		<polygon fill="#A43123" points="378.239,57.743 384.339,81.818 404.916,70.714 404.916,178.211 432.495,178.211 432.495,40.215 
			410.983,40.215 		"/>
		<path fill="#A43123" d="M507.948,38.083c-30.367,0-49.232,27.194-49.232,70.984c0.402,43.246,18.45,70.111,47.102,70.111
			c31.294,0,49.241-26.207,49.241-71.902C555.058,63.949,537.447,38.083,507.948,38.083z M506.79,155.098
			c-12.412,0-20.123-17.583-20.123-45.885c0-28.58,7.975-47.048,20.316-47.048c17.5,0,20.113,28.749,20.113,45.887
			C527.096,125.622,524.458,155.098,506.79,155.098z"/>
		<path fill="#A43123" d="M694.807,139.659h-0.023c-0.752-25.835-18.99-40.612-50.273-40.612h-3.129l-0.004,24.245h2.955
			c11.752,0,22.713,2.088,23.338,17.17v12.23c-3.151,0.883-8.446,1.801-16.838,1.801c-27.841,0-44.462-17.483-44.462-46.768
			c0-28.73,17.846-46.578,46.573-46.578c13.222,0,21.048,2.723,26.389,5.096l5.644,2.505l7.085-23.952l-4.146-2
			c-6.502-3.134-19.003-6.483-34.589-6.483c-44.907,0-75.223,29.003-75.436,72.179c0,20.999,7.183,39.977,19.711,52.072
			c13.086,12.496,30.123,18.57,52.085,18.57c17.261,0,32.115-4.033,41.536-7.416l3.588-1.283v-29.275L694.807,139.659z"/>
	</g>
	<g>
		<g>
			<path fill="#0F5172" d="M412.677,225.106h15.707v14.072h-15.707v54.105h-16.393v-54.105h-11.618v-14.072h11.618
				c0.13-22.545,12.426-28.285,25.405-28.285c2.321,0,4.643,0.275,6.694,0.688v12.842c-1.229-0.137-2.453-0.273-3.688-0.273
				C416.642,210.077,412.677,212.668,412.677,225.106z"/>
			<path fill="#0F5172" d="M500.39,259.256c0,22.689-11.473,35.115-32.25,35.115c-20.762,0-32.243-12.426-32.243-35.115
				c0-22.674,11.481-35.113,32.243-35.113C488.917,224.143,500.39,236.583,500.39,259.256z M483.99,259.256
				c0-18.027-6.152-21.584-15.85-21.584c-9.7,0-15.852,3.557-15.852,21.584c0,18.039,6.151,21.592,15.852,21.592
				C477.837,280.848,483.99,277.295,483.99,259.256z"/>
			<path fill="#0F5172" d="M550.533,224.014v14.209c-9.158,0.133-15.304,1.641-17.625,2.32v52.74h-16.391v-62.029
				C516.517,231.254,531.005,224.418,550.533,224.014z"/>
			<path fill="#0F5172" d="M597.812,280.297c6.287,0,11.885-1.365,16.939-3.414v13.664c-5.879,2.322-12.426,3.824-19.672,3.824
				c-20.772,0-32.244-12.426-32.244-35.115c0-22.674,11.472-35.242,32.244-35.242c7.246,0,13.793,1.506,19.672,3.824v13.664
				c-5.055-2.049-10.652-3.279-16.939-3.279c-11.472,0-18.586,3.414-18.586,21.033C579.226,276.747,586.34,280.297,597.812,280.297z
				"/>
			<path fill="#0F5172" d="M684.292,274.973v13.25c-6.283,3.414-14.747,6.148-25.689,6.148c-13.521,0-31.693-5.459-31.693-34.428
				c0-20.355,8.199-36.066,30.479-36.066c21.3,0,30.459,15.986,30.459,33.061c0,3.006,0,5.74-0.275,8.471H643.72
				c0.95,13.117,9.426,14.889,17.345,14.889C670.77,280.297,678.552,277.711,684.292,274.973z M643.72,254.073h27.461
				c-0.822-8.613-5.055-16.811-13.793-16.811C649.316,237.262,644.67,241.909,643.72,254.073z"/>
		</g>
		<g>
			<g>
				<path fill="#59C9E6" d="M411.039,223.301h15.707v14.07h-15.707v54.104h-16.393v-54.104h-11.619v-14.07h11.619
					c0.13-22.551,12.426-28.287,25.404-28.287c2.322,0,4.644,0.275,6.695,0.684v12.846c-1.229-0.137-2.453-0.273-3.688-0.273
					C415.003,208.27,411.039,210.862,411.039,223.301z"/>
				<path fill="#59C9E6" d="M498.75,257.45c0,22.689-11.472,35.111-32.249,35.111c-20.762,0-32.243-12.422-32.243-35.111
					c0-22.674,11.481-35.113,32.243-35.113C487.279,222.336,498.75,234.776,498.75,257.45z M482.351,257.45
					c0-18.027-6.152-21.584-15.85-21.584c-9.701,0-15.852,3.557-15.852,21.584c0,18.035,6.15,21.592,15.852,21.592
					C476.199,279.042,482.351,275.485,482.351,257.45z"/>
				<path fill="#59C9E6" d="M548.894,222.211v14.201c-9.158,0.137-15.305,1.643-17.625,2.322v52.74h-16.391v-62.027
					C514.878,229.448,529.366,222.612,548.894,222.211z"/>
				<path fill="#59C9E6" d="M596.173,278.491c6.287,0,11.885-1.365,16.939-3.414v13.666c-5.879,2.318-12.426,3.818-19.672,3.818
					c-20.773,0-32.244-12.422-32.244-35.111c0-22.674,11.471-35.238,32.244-35.238c7.246,0,13.793,1.5,19.672,3.814v13.668
					c-5.055-2.051-10.652-3.281-16.939-3.281c-11.473,0-18.586,3.412-18.586,21.037
					C577.587,274.938,584.701,278.491,596.173,278.491z"/>
				<path fill="#59C9E6" d="M682.654,273.167v13.246c-6.283,3.422-14.747,6.148-25.689,6.148c-13.521,0-31.693-5.457-31.693-34.42
					c0-20.359,8.199-36.066,30.479-36.066c21.299,0,30.459,15.98,30.459,33.057c0,3.01,0,5.734-0.275,8.471h-43.852
					c0.949,13.117,9.426,14.889,17.345,14.889C669.131,278.491,676.914,275.901,682.654,273.167z M642.082,252.264h27.461
					c-0.822-8.611-5.055-16.811-13.793-16.811C647.677,235.454,643.031,240.1,642.082,252.264z"/>
			</g>
		</g>
	</g>
	<g>
		<polygon fill="#F05123" stroke="#F05123" stroke-width="3" stroke-miterlimit="10" points="377.964,56.626 383.304,77.699 
			404.399,66.316 404.399,174.827 428.978,174.827 428.978,39.831 409.342,39.831 		"/>
		<path fill="#F05123" stroke="#F05123" stroke-width="3" stroke-miterlimit="10" d="M505.931,37.698
			c-29.441,0-47.732,26.605-47.732,69.471c0.394,42.33,17.865,68.625,45.602,68.625c30.339,0,47.741-25.66,47.741-70.402
			C551.542,63.004,534.49,37.698,505.931,37.698z M504.773,154.713c-13.336,0-21.623-18.157-21.623-47.385
			c0-29.493,8.568-48.548,21.816-48.548c18.808,0,21.613,29.688,21.613,47.387C526.58,124.296,523.747,154.713,504.773,154.713z"/>
		<path fill="#F05123" stroke="#F05123" stroke-width="3" stroke-miterlimit="10" d="M691.292,139.274
			c-0.082-26.997-19.36-40.612-48.798-40.612h-1.629l-0.004,21.245h1.455c12.82,0,24.18,2.744,24.838,18.67v13.346
			c-2.908,0.943-8.582,2.186-18.338,2.186c-28.783,0-45.962-18.046-45.962-48.268c0-29.656,18.423-48.078,48.073-48.078
			c13.508,0,21.527,2.795,26.997,5.225l4.081,1.812l6.238-21.091l-2.996-1.445c-6.354-3.063-18.599-6.335-33.938-6.335
			c-44.018,0-73.727,28.394-73.936,70.679c0,20.589,7.01,39.174,19.247,50.986c12.798,12.221,29.499,18.156,51.049,18.156
			c17.041,0,31.712-3.982,41.03-7.328l2.595-0.928v-28.219H691.292z"/>
	</g>
	<g>
		<path fill="#F05123" d="M229.762,245.327l3.099-39.189c4.117-4.039,8.253-8.08,12.37-12.143
			c-4.672-10.213-6.751-20.941-7.876-31.873c-0.143-1.377-0.271-2.75-0.391-4.129c-0.166-2.031-0.313-4.07-0.442-6.111
			c-0.2-0.08-0.398-0.164-0.604-0.254c-0.549,1.209-1.107,2.412-1.666,3.625c-0.406,0.889-0.823,1.775-1.225,2.67
			c-1.184,2.561-2.363,5.125-3.547,7.689h-0.004c-0.004,0.008,0.003,0.014,0,0.018c-0.049,0.158-0.198,0.254-0.334,0.213
			c-0.084-0.027-0.133-0.1-0.155-0.186c-0.007,0.002-0.007,0.002-0.007,0.002c-0.23-2.717-0.563-5.428-0.658-8.152
			c-0.053-1.416-0.077-2.836-0.112-4.252c-0.037-1.4-0.081-2.807-0.107-4.211c-0.051-2.58-0.091-5.158-0.142-7.742
			c-0.119-6.24-0.308-12.485-0.313-18.732c-0.005-1.997-0.588-2.504-2.617-2.536c-8.746-0.128-17.488-0.344-26.228-0.563
			c-1.864-0.048-3.723-0.096-5.583-0.144c-2.34-0.062-4.676-0.12-7.02-0.181c-1.345-0.035-2.677-0.28-4.018-0.424
			c0-0.005-0.133-0.039-0.183-0.088c-0.12-0.122-0.11-0.328,0.024-0.462c0.009-0.009,0.019-0.013,0.031-0.021
			c-0.002-0.005-0.003-0.008-0.003-0.011c0.019-0.007,0.038-0.016,0.056-0.027c0.021-0.011,0.04-0.021,0.063-0.025
			c2.219-1.006,4.441-2.01,6.664-3.014c1.289-0.587,2.581-1.168,3.877-1.756c1.048-0.47,2.097-0.945,3.15-1.423
			c-0.032-0.123-0.063-0.25-0.093-0.376c-0.022-0.1-0.045-0.198-0.067-0.297c-1.844-0.138-3.681-0.29-5.518-0.448
			c-2.285-0.203-4.569-0.435-6.844-0.702c-9.97-1.177-19.765-3.151-29.078-7.319c-4.104,4.162-8.191,8.345-12.276,12.505
			l-39.202,3.102c-8.104,0.642-19.443,5.868-25.19,11.619l-42.869,42.864c-5.75,5.75-3.802,10.527,4.331,10.611l57.831,0.633
			c0.998,0.012,2.044-0.053,3.128-0.178c4.013,12.557,12.696,26.512,25.186,38.996c12.217,12.223,25.834,20.783,38.174,24.91
			c0.174-0.031,0.346-0.066,0.514-0.098c2.01-0.529,4.018-0.986,5.956-1.625c1.965-0.543,3.826-1.322,5.704-1.953
			c1.83-0.752,3.641-1.455,5.365-2.26c3.479-1.531,6.695-3.209,9.643-4.838c2.964-1.6,5.604-3.24,7.965-4.68
			c2.346-1.473,4.391-2.785,6.07-3.889c1.688-1.102,3.019-1.965,3.923-2.553c0.921-0.576,1.414-0.879,1.414-0.879
			s-0.376,0.439-1.079,1.264c-0.712,0.813-1.728,2.039-3.1,3.527c-1.355,1.508-3.072,3.273-5.111,5.244
			c-2.065,1.939-4.441,4.107-7.221,6.266c-1.36,1.115-2.874,2.152-4.412,3.279c-1.577,1.068-3.217,2.17-4.973,3.205
			c-1.721,1.096-3.609,2.023-5.497,3.047c-1.949,0.92-3.934,1.891-6.049,2.68c-2.663,1.08-5.485,1.994-8.405,2.734l0.579,52.768
			c0.088,8.135,4.867,10.08,10.613,4.332l42.869-42.869C223.894,264.768,229.119,253.43,229.762,245.327z"/>
		<path fill="#FFFFFF" d="M190.182,110.771c1.837,0.161,3.674,0.31,5.516,0.451c0.022,0.096,0.05,0.196,0.07,0.294
			c0.032,0.128,0.062,0.253,0.093,0.377c-1.055,0.477-2.101,0.951-3.151,1.425c-1.297,0.584-2.585,1.166-3.877,1.754
			c-2.22,1.004-4.442,2.008-6.664,3.013c-0.022,0.008-0.042,0.014-0.062,0.026c-0.021,0.01-0.038,0.018-0.057,0.026
			c0,0.003,0.001,0.008,0.003,0.011c-0.013,0.008-0.02,0.013-0.028,0.021c-0.135,0.135-0.146,0.341-0.026,0.462
			c0.048,0.05,0.181,0.085,0.185,0.088c1.341,0.147,2.671,0.391,4.015,0.424c2.344,0.063,4.678,0.117,7.022,0.181
			c1.857,0.047,3.715,0.098,5.58,0.143c8.738,0.224,17.484,0.438,26.229,0.564c2.031,0.034,2.611,0.54,2.618,2.536
			c0.006,6.246,0.191,12.492,0.31,18.733c0.053,2.584,0.092,5.164,0.143,7.742c0.023,1.406,0.072,2.811,0.107,4.213
			c0.036,1.412,0.059,2.832,0.111,4.248c0.096,2.725,0.429,5.436,0.652,8.154c0.007-0.002,0.01,0,0.014-0.002
			c0.023,0.086,0.071,0.158,0.154,0.186c0.133,0.041,0.289-0.053,0.334-0.211c0.004-0.008-0.003-0.012,0-0.018
			c0-0.004,0.004-0.004,0.004-0.004c1.185-2.561,2.361-5.129,3.545-7.688c0.404-0.895,0.821-1.781,1.23-2.672
			c0.555-1.211,1.114-2.414,1.666-3.621c0.203,0.086,0.401,0.172,0.602,0.25c0.129,2.043,0.276,4.082,0.444,6.115
			c0.116,1.377,0.249,2.75,0.389,4.125c1.125,10.932,3.202,21.662,7.876,31.875c0.204-0.199,0.407-0.404,0.613-0.604
			c-0.911-6.602-2.158-13.188-2.424-19.813c-0.076-1.898-0.111-3.801-0.127-5.697c-0.002-1.166-0.009-2.338,0-3.504
			c0.051-6.301,0.295-12.611,0.367-18.91c0.016-1.979,0.045-3.972-0.15-5.936c-0.246-2.555-0.919-2.963-3.425-2.524
			c-0.796,0.143-1.606,0.249-2.751,0.424c0.068-0.89,0.096-1.334,0.137-1.773c0.734-8.119,1.512-16.24,2.19-24.363
			c0.223-2.701-0.593-3.522-3.284-3.294c-7.813,0.662-15.625,1.4-23.44,2.166c-2.805,0.276-2.903,0.233-2.321-2.579
			c0.556-2.671,0.268-3.247-2.438-3.283c-6.172-0.08-12.353,0.187-18.521,0.028c-2.014-0.05-4.033-0.131-6.043-0.193
			c-2.433-0.078-4.862-0.143-7.299-0.24c-5.219-0.199-10.435-0.438-15.652-0.726c-1.973-0.112-3.926-0.526-5.88-0.948
			c-0.173,0.175-0.346,0.351-0.52,0.527c9.313,4.169,19.109,6.145,29.078,7.32C185.613,110.339,187.897,110.57,190.182,110.771z"/>
		<path fill="#F9A01B" d="M237.94,166.995c-0.048-0.371-0.108-0.738-0.153-1.111c-0.156-1.25-0.303-2.502-0.432-3.762
			c-0.143-1.377-0.271-2.75-0.391-4.129c-0.036-0.463-0.063-0.932-0.102-1.396c-0.12-1.57-0.238-3.141-0.341-4.715
			c-0.2-0.08-0.398-0.164-0.604-0.254c-0.462,1.021-0.936,2.041-1.407,3.061c-0.085,0.188-0.171,0.373-0.259,0.564
			c-0.406,0.889-0.823,1.775-1.225,2.67c-1.184,2.561-2.363,5.125-3.547,7.689h-0.004c-0.004,0.008,0.003,0.014,0,0.018
			c-0.049,0.158-0.198,0.254-0.334,0.213c-0.084-0.027-0.133-0.1-0.155-0.186c-0.007,0.002-0.007,0.002-0.007,0.002
			c-0.23-2.717-0.563-5.428-0.658-8.152c-0.053-1.416-0.077-2.836-0.112-4.252c-0.037-1.4-0.081-2.807-0.107-4.211
			c-0.051-2.58-0.091-5.158-0.142-7.742c-0.119-6.24-0.308-12.485-0.313-18.732c-0.005-1.997-0.588-2.504-2.617-2.536
			c-8.746-0.128-17.488-0.344-26.228-0.563c-1.864-0.048-3.723-0.096-5.583-0.144c-2.34-0.062-4.676-0.12-7.02-0.181
			c-1.345-0.035-2.677-0.28-4.018-0.424c0-0.005-0.133-0.039-0.183-0.088c-0.12-0.122-0.11-0.328,0.024-0.462
			c0.009-0.009,0.019-0.013,0.031-0.021c-0.002-0.005-0.003-0.008-0.003-0.011c0.019-0.007,0.038-0.016,0.056-0.027
			c0.021-0.011,0.04-0.021,0.063-0.025c2.219-1.006,4.441-2.01,6.664-3.014c1.289-0.587,2.581-1.168,3.877-1.756
			c0.102-0.043,0.207-0.093,0.313-0.139c0.946-0.426,1.888-0.853,2.838-1.284c-0.032-0.123-0.063-0.25-0.093-0.376
			c-0.022-0.1-0.045-0.198-0.067-0.297c-1.588-0.119-3.167-0.248-4.752-0.386c-0.256-0.022-0.512-0.038-0.766-0.063
			c-2.285-0.203-4.569-0.435-6.844-0.702c-9.941-1.17-19.711-3.14-29-7.286c-2.123,2.162-4.25,4.325-6.365,6.485l-0.121,0.008
			c-1.955,1.997-3.916,3.989-5.868,5.979l-39.202,3.102c-8.104,0.642-19.443,5.868-25.19,11.619l-36.883,36.878
			c-5.747,5.75-3.8,10.525,4.331,10.613l57.83,0.635c0.999,0.008,2.048-0.053,3.129-0.18c4.016,12.555,12.757,27.127,25.246,39.617
			c5.225,5.221,10.283,9.346,15.81,13.174c27.347-10.193,53.425-26.211,75.74-47.645c1.081-1.035,2.158-2.074,3.222-3.133
			C230.207,175.75,234.164,171.424,237.94,166.995z"/>
		<g>
			<path fill="#F05123" d="M124.7,238.51c4.315,5.891,3.649,13.127-10.822,27.611c-19.974,19.971-50.841,22.926-62.033,23.322
				c-0.259,4.352-0.171,6.998-0.171,6.998s42.455,1.422,67.767-23.891C139.195,252.786,133.788,246.211,124.7,238.51z"/>
			<path fill="#F9A01B" d="M124.7,238.51c-2.548-2.156-5.39-4.406-8.042-7.063c-0.979-0.977-1.902-1.98-2.787-2.986
				c-3.584-4.074-6.526-8.168-9.875-10.705c-6.063-4.586-13.459-4.072-28.438,10.918c-18.999,19-22.934,47.658-23.714,60.77
				c11.192-0.396,42.06-3.352,62.033-23.322C128.349,251.637,129.015,244.401,124.7,238.51z"/>
		</g>
		<g>
			<path fill="#2BACE2" d="M325.156,22.962c-0.474-0.479-1.485-1.268-2.98-1.365c-26.932,0.932-54.521,0.979-79.058,11.989
				c-33.834,15.184-61.513,41.461-88.338,68.637c1.954,0.422,3.907,0.836,5.88,0.948c5.218,0.288,10.434,0.526,15.652,0.726
				c-3.286-0.124-6.568-0.3-9.857-0.457c25.217-25.273,51.479-49.185,83.133-63.384c11.111-4.987,22.847-7.723,34.87-9.313
				c-0.023,12.977-1.195,25.948-3.501,38.757c5.629,6.812,5.254,16.906-1.106,23.284c-1.638,1.638-3.524,2.869-5.534,3.715
				c-6.84,21.77-17.143,42.685-30.917,61.888c0.059-2.676,0.118-5.348,0.173-8.016c-0.102,4.664-0.245,9.338-0.281,14.004
				c-0.009,1.166-0.002,2.338,0,3.504c0.016,1.896,0.051,3.799,0.127,5.697c0.266,6.625,1.513,13.211,2.424,19.813
				c27.188-26.832,53.479-54.532,68.688-88.392c11.021-24.53,11.054-52.122,11.988-79.059
				C326.421,24.451,325.632,23.435,325.156,22.962z"/>
			<path fill="#59C9E6" d="M243.572,150.372c0.036-1.639,0.066-3.271,0.086-4.906C243.637,147.1,243.605,148.733,243.572,150.372z"
				/>
			<path fill="#59C9E6" d="M274.316,96.5c-6.306,2.652-13.857,1.416-18.998-3.721c-6.76-6.764-6.768-17.743,0.015-24.503
				c6.767-6.776,17.744-6.776,24.506-0.011c0.396,0.396,0.767,0.809,1.118,1.235c2.306-12.809,3.478-25.78,3.501-38.757
				c-12.023,1.59-23.759,4.325-34.87,9.313c-31.654,14.199-57.916,38.11-83.133,63.384c3.289,0.157,6.571,0.333,9.857,0.457
				c2.437,0.098,4.869,0.162,7.299,0.24c2.01,0.063,4.029,0.144,6.043,0.193c6.169,0.158,12.35-0.108,18.525-0.028
				c2.701,0.036,2.989,0.612,2.434,3.283c-0.582,2.813-0.483,2.855,2.321,2.579c7.815-0.766,15.627-1.504,23.44-2.166
				c2.691-0.228,3.508,0.595,3.284,3.297c-0.676,8.12-1.456,16.241-2.19,24.36c-0.041,0.439-0.068,0.884-0.137,1.773
				c1.145-0.172,1.955-0.281,2.753-0.423c2.504-0.439,3.177-0.031,3.427,2.525c0.191,1.962,0.166,3.955,0.146,5.934
				c-0.02,1.635-0.05,3.268-0.086,4.906c-0.055,2.668-0.114,5.34-0.173,8.016C257.173,139.184,267.476,118.269,274.316,96.5z"/>
		</g>
		<path fill="#F05123" d="M156.66,65.762c-4.499,4.496-11.795,4.504-16.296,0.004c-4.495-4.498-4.491-11.792,0.01-16.295
			c4.493-4.492,11.787-4.499,16.286,0C161.161,53.974,161.156,61.266,156.66,65.762z"/>
		<path fill="#F05123" d="M29.201,218.645c-3.37,3.367-8.84,3.375-12.217,0c-3.374-3.377-3.371-8.842,0.002-12.219
			c3.377-3.373,8.848-3.377,12.219-0.006C32.581,209.799,32.578,215.266,29.201,218.645z"/>
		<path fill="#F05123" d="M284.791,299.85c-8.438,8.436-22.121,8.438-30.558,0c-8.438-8.439-8.435-22.121,0.001-30.559
			c8.439-8.432,22.122-8.441,30.559-0.004C293.229,277.727,293.228,291.411,284.791,299.85z"/>
	</g>
</g>
</svg>
