<?xml version="1.0" encoding="utf-8"?>
<!-- Generator: Adobe Illustrator 16.0.2, SVG Export Plug-In . SVG Version: 6.00 Build 0)  -->
<!DOCTYPE svg PUBLIC "-//W3C//DTD SVG 1.1//EN" "http://www.w3.org/Graphics/SVG/1.1/DTD/svg11.dtd">
<svg version="1.1" id="Layer_1" xmlns="http://www.w3.org/2000/svg" xmlns:xlink="http://www.w3.org/1999/xlink" x="0px" y="0px"
	 width="605px" height="413px" viewBox="0 0 605 413" enable-background="new 0 0 605 413" xml:space="preserve">
<g>
	<path fill="#2E3035" stroke="#00C6F2" stroke-width="0.6692" stroke-miterlimit="10" d="M209.643,357.07l-133.422,0.035
		c-24.783,0-44.969-20.16-44.98-44.953l-0.104-265.98c-0.016-24.803,20.156-44.994,44.955-45L507.166,1
		c24.809,0.006,44.988,20.17,45.01,44.965l0.084,265.975c0.01,24.799-20.16,44.984-44.949,44.994l-135.645,0.059"/>
	<path fill="none" stroke="#25282D" stroke-width="0.3921" stroke-miterlimit="10" d="M359.471,344.799l147.848-0.076
		c18.063,0.01,32.738-14.701,32.744-32.773l-0.113-265.984c-0.004-18.078-14.695-32.758-32.764-32.752l-431.09,0.172
		C58.029,13.396,43.334,28.084,43.35,46.156l0.094,266c0.006,18.049,14.705,32.736,32.793,32.742l145.605-0.066"/>
	<g>
		<path fill="#F1F2F2" d="M67.132,325.291c-2.247,0-4.076-1.829-4.077-4.076L62.948,37.061c-0.001-2.249,1.827-4.079,4.076-4.08
			c0,0,449.245-0.176,449.246-0.176c2.247,0,4.076,1.828,4.078,4.075l0.117,284.155c0.001,1.087-0.424,2.11-1.195,2.883
			c-0.771,0.771-1.793,1.196-2.88,1.197l-449.255,0.176C67.134,325.291,67.132,325.291,67.132,325.291z"/>
		<path fill="#00C6F2" d="M516.27,34.812c1.139,0,2.07,0.932,2.071,2.07l0.117,284.154c0.001,1.14-0.931,2.071-2.07,2.072
			l-449.254,0.176c0,0-0.001,0-0.002,0c-1.138,0-2.07-0.932-2.07-2.07L64.954,37.06c0-1.139,0.931-2.072,2.07-2.072L516.27,34.812
			L516.27,34.812 M516.27,30.799c-0.001,0-0.001,0-0.002,0L67.023,30.975c-1.623,0-3.15,0.635-4.3,1.786
			c-1.15,1.151-1.783,2.678-1.782,4.301l0.107,284.155c0.001,3.354,2.73,6.081,6.083,6.081l449.258-0.176
			c3.356-0.003,6.084-2.734,6.081-6.088L522.354,36.88C522.351,33.526,519.621,30.799,516.27,30.799L516.27,30.799z"/>
	</g>
	<polygon fill="#FFAA2C" points="518.418,281.699 65.047,281.865 64.967,80.787 518.365,80.605 	"/>
	
		<line fill="none" stroke="#00C6F2" stroke-width="1.2848" stroke-miterlimit="10" x1="64.963" y1="78.498" x2="518.355" y2="78.309"/>
	<path fill="#2E3035" d="M491.35,249.834l-196.699,0.068c-2.953-0.016-5.324,2.168-5.332,4.863c0,2.723,2.365,4.914,5.314,4.914
		l196.711-0.063c2.969-0.006,5.336-2.213,5.34-4.902C496.68,252.01,494.289,249.828,491.35,249.834z"/>
	<g>
		<path fill="#2E3035" d="M323.246,249.932L93.477,250c-3.436,0.021-6.195,2.17-6.205,4.896c0.01,2.686,2.779,4.877,6.205,4.877
			l229.764-0.084c3.416,0.01,6.207-2.174,6.217-4.891C329.447,252.078,326.65,249.928,323.246,249.932z"/>
		<path fill="#FF5A29" d="M217.383,259.736l46.162-0.021c2.533-0.004,4.615-2.188,4.615-4.885c0.012-2.686-2.07-4.893-4.6-4.898
			l-46.193,0.043c-2.557-0.014-4.621,2.139-4.627,4.871C212.736,257.563,214.811,259.736,217.383,259.736z"/>
	</g>
	<line opacity="0.3" fill="#2E3035" x1="217.361" y1="345.367" x2="359.471" y2="344.799"/>
	<g>
		<g>
			<path fill="#FFAA2C" d="M99.549,55.615c0.02,4.365-3.529,7.916-7.908,7.912c-4.359,0.01-7.91-3.535-7.928-7.889
				c0.023-4.359,3.559-7.922,7.912-7.928C96.016,47.727,99.568,51.279,99.549,55.615z"/>
		</g>
		<g>
			<path fill="#FF5A29" d="M131.4,55.615c-0.006,4.354-3.545,7.902-7.93,7.902c-4.381-0.016-7.908-3.549-7.912-7.902
				c0.004-4.348,3.531-7.91,7.906-7.914C127.85,47.705,131.4,51.254,131.4,55.615z"/>
		</g>
		<g>
			<path fill="#2E3035" d="M163.24,55.584c-0.012,4.365-3.555,7.922-7.936,7.912c-4.375,0.031-7.912-3.531-7.906-7.891
				c-0.006-4.348,3.531-7.904,7.906-7.91C159.68,47.691,163.229,51.24,163.24,55.584z"/>
		</g>
	</g>
	<g>
		<polygon fill="#00C6F2" points="210.088,201.605 87.246,201.672 87.197,102.691 210.049,102.666 		"/>
		<polygon fill="#2E3035" points="210.088,227.914 87.25,227.965 87.246,201.672 210.088,201.605 		"/>
	</g>
	<g>
		<polygon fill="#00C6F2" points="352.869,201.543 230.021,201.58 229.992,102.641 352.838,102.598 		"/>
		<polygon fill="#2E3035" points="352.885,227.846 230.047,227.896 230.021,201.58 352.869,201.543 		"/>
	</g>
	<g>
		<polygon fill="#00C6F2" points="495.646,200.113 372.799,200.15 372.773,101.217 495.605,101.152 		"/>
		<polygon fill="#2E3035" points="495.664,226.416 372.814,226.449 372.799,200.15 495.646,200.113 		"/>
	</g>
	<path opacity="0.7" fill="#00C6F2" d="M124.393,219.625l46.195-0.014c2.539-0.006,4.604-2.201,4.631-4.896
		c-0.006-2.67-2.098-4.869-4.631-4.877l-46.186,0.012c-2.564,0-4.629,2.184-4.635,4.881
		C119.764,217.463,121.854,219.645,124.393,219.625z"/>
	<path opacity="0.7" fill="#00C6F2" d="M268.682,219.57l46.18-0.023c2.539,0.014,4.619-2.178,4.625-4.891
		c-0.006-2.662-2.074-4.869-4.604-4.875l-46.217,0.021c-2.539,0-4.615,2.168-4.621,4.879
		C264.051,217.389,266.111,219.58,268.682,219.57z"/>
	<path opacity="0.7" fill="#00C6F2" d="M412.951,219.521l46.188-0.025c2.537,0,4.617-2.201,4.621-4.9
		c-0.004-2.67-2.074-4.873-4.607-4.877l-46.195,0.01c-2.555,0.027-4.627,2.197-4.633,4.902
		C408.32,217.338,410.406,219.518,412.951,219.521z"/>
	<path fill="#FF5A29" d="M292.59,259.674l54.277-0.004c2.979-0.01,5.418-2.191,5.418-4.889c0-2.703-2.436-4.904-5.428-4.885
		l-54.258,0.035c-3.002-0.02-5.439,2.156-5.443,4.883C287.156,257.504,289.576,259.686,292.59,259.674z"/>
	<path fill="#2E3035" stroke="#00C6F2" stroke-width="0.6692" stroke-miterlimit="10" d="M1.004,346.75
		c0.061,24.504,19.979,44.309,44.484,44.25l514.557-1.439c24.504-0.068,44.301-19.988,44.25-44.494
		c-0.006-0.668-0.031-1.332-0.057-1.994L1.039,344.758C1.023,345.422,0.988,346.076,1.004,346.75z"/>
	<path fill="#2E3035" stroke="#00C6F2" stroke-width="0.6692" stroke-miterlimit="10" d="M335.855,347.83
		c0.004,4.422-3.572,8.023-7.988,8.035l-72.711,0.191c-4.428,0.021-8.031-3.564-8.037-7.986l0,0
		c-0.01-4.434,3.572-8.027,7.988-8.031l72.695-0.215C332.229,339.824,335.83,343.408,335.855,347.83L335.855,347.83z"/>
</g>
<g>
	<g>
		<g>
			<polygon fill="#F1F2F2" points="489.717,407.557 309.641,407.918 309.141,156.281 489.209,155.918 			"/>
			<path fill="#00C6F2" d="M487.643,155.921c0.862,0,1.567,0.704,1.569,1.566l0.502,248.5c0.002,0.863-0.703,1.57-1.566,1.572
				l-176.938,0.355c-0.001,0-0.002,0-0.003,0c-0.861,0-1.567-0.704-1.568-1.566l-0.494-248.499c-0.001-0.863,0.703-1.57,1.566-1.572
				l176.93-0.357C487.641,155.921,487.642,155.921,487.643,155.921 M487.643,153.252h-0.003l-176.936,0.357
				c-2.335,0.004-4.233,1.908-4.229,4.245l0.494,248.499c0.004,2.332,1.904,4.23,4.237,4.23l176.946-0.355
				c2.338-0.006,4.235-1.911,4.23-4.247l-0.502-248.5C491.875,155.149,489.974,153.252,487.643,153.252L487.643,153.252z"/>
		</g>
		<g>
			<polygon fill="#00C6F2" points="489.717,407.557 309.641,407.918 309.141,156.281 489.209,155.918 			"/>
			<path fill="#25282D" d="M487.643,155.921c0.862,0,1.567,0.704,1.569,1.566l0.502,248.5c0.002,0.863-0.703,1.57-1.566,1.572
				l-176.938,0.355c-0.001,0-0.002,0-0.003,0c-0.861,0-1.567-0.704-1.568-1.566l-0.494-248.499c-0.001-0.863,0.703-1.57,1.566-1.572
				l176.93-0.357C487.641,155.921,487.642,155.921,487.643,155.921 M487.643,153.895h-0.003l-176.934,0.357
				c-0.958,0.001-1.86,0.378-2.539,1.059c-0.678,0.681-1.051,1.584-1.049,2.542l0.494,248.499c0.003,1.979,1.616,3.589,3.595,3.589
				l176.945-0.355c1.983-0.004,3.594-1.621,3.589-3.604l-0.502-248.5C491.234,155.504,489.621,153.895,487.643,153.895
				L487.643,153.895z"/>
		</g>
		<polygon fill="#FFAA2C" points="483.105,368.098 316.143,368.422 315.734,162.395 482.689,162.064 		"/>
	</g>
	<g>
		<path fill="#FF5A29" stroke="#2E3035" stroke-width="1.0132" stroke-miterlimit="10" d="M407.721,386.613
			c0.012,4.465-3.605,8.094-8.068,8.1c-4.469,0.014-8.096-3.605-8.098-8.068c-0.016-4.465,3.598-8.096,8.064-8.104
			C404.08,378.529,407.707,382.154,407.721,386.613z"/>
		<path fill="#FFFFFF" d="M397.107,385.412c0.621-1.041,1.98-1.385,3.021-0.775c1.037,0.621,1.383,1.977,0.76,3.029
			c-0.609,1.037-1.977,1.389-3.02,0.768C396.836,387.816,396.486,386.451,397.107,385.412z"/>
	</g>
	<g>
		<g>
			<g>
				
					<line fill="none" stroke="#FFFFFF" stroke-width="4.4475" stroke-linecap="round" stroke-linejoin="round" stroke-miterlimit="10" x1="350.762" y1="200.473" x2="461.07" y2="310.316"/>
			</g>
			<g>
				
					<line fill="none" stroke="#FFFFFF" stroke-width="4.4475" stroke-linecap="round" stroke-linejoin="round" stroke-miterlimit="10" x1="397.217" y1="192.623" x2="460.963" y2="256.084"/>
			</g>
		</g>
		<g>
			<g>
				
					<line fill="none" stroke="#00C6F2" stroke-width="1.1054" stroke-linecap="round" stroke-linejoin="round" stroke-miterlimit="10" x1="349.707" y1="200.676" x2="460.008" y2="310.523"/>
			</g>
			<g>
				
					<line fill="none" stroke="#00C6F2" stroke-width="1.1054" stroke-linecap="round" stroke-linejoin="round" stroke-miterlimit="10" x1="396.115" y1="192.869" x2="459.861" y2="256.326"/>
			</g>
		</g>
	</g>
</g>
<g>
	<path fill="#2E3035" stroke="#00C6F2" stroke-width="0.423" stroke-miterlimit="10" d="M468.232,412
		c-10.527-0.004-19.088-8.563-19.092-19.088l0.004-154.127c0.002-10.527,8.563-19.084,19.088-19.086h83.975
		c10.523,0.006,19.086,8.564,19.088,19.088l-0.002,154.127c-0.004,10.525-8.564,19.088-19.09,19.082L468.232,412z"/>
	<g>
		<polygon fill="#F1F2F2" points="559.207,399.004 463.043,399.01 463.043,232.691 559.205,232.697 		"/>
		<path fill="#00C6F2" d="M465.95,232.691l90.348,0.006c1.6,0,2.907,1.308,2.907,2.907l0.002,160.493c0,1.6-1.308,2.907-2.907,2.907
			l-90.35,0.006c-1.599,0-2.907-1.308-2.907-2.907V235.598C463.043,234,464.351,232.691,465.95,232.691 M465.95,228.937
			C465.95,228.937,465.95,228.937,465.95,228.937c-3.673,0-6.662,2.988-6.662,6.661v160.504c0,3.673,2.988,6.661,6.661,6.661
			l90.35-0.006c3.673,0,6.661-2.988,6.661-6.661l-0.002-160.493c0-3.673-2.988-6.661-6.661-6.661L465.95,228.937L465.95,228.937z"/>
	</g>
	<polygon fill="#FFAA2C" points="559.207,363.332 463.049,363.332 463.045,257.723 559.205,257.727 	"/>
	<path fill="#FF5A29" stroke="#2E3035" stroke-width="1.8772" stroke-miterlimit="10" d="M516.465,379.127
		c0.002,2.957-2.395,5.352-5.34,5.35c-2.953,0-5.342-2.393-5.342-5.348c0-2.949,2.391-5.342,5.342-5.342
		C514.072,373.787,516.465,376.178,516.465,379.127z"/>
	<g>
		<path fill="#FF5A29" d="M514.01,240.328c0,1.584-1.291,2.873-2.885,2.871c-1.594,0-2.881-1.285-2.883-2.875
			c0-1.588,1.291-2.875,2.881-2.881C512.719,237.443,514.006,238.742,514.01,240.328z"/>
		
			<line fill="none" stroke="#2E3035" stroke-width="2.0478" stroke-linecap="round" stroke-linejoin="round" stroke-miterlimit="10" x1="497.293" y1="249.301" x2="524.957" y2="249.303"/>
	</g>
	
		<line fill="none" stroke="#2E3035" stroke-width="2.0048" stroke-miterlimit="10" x1="462.941" y1="257.725" x2="559.09" y2="257.727"/>
	
		<line fill="none" stroke="#2E3035" stroke-width="2.0048" stroke-miterlimit="10" x1="462.941" y1="363.33" x2="559.092" y2="363.332"/>
	<rect x="463.044" y="259.986" fill="#FF5A29" width="96.16" height="55.102"/>
	
		<line fill="none" stroke="#2E3035" stroke-width="2.0017" stroke-miterlimit="10" x1="463.174" y1="314.576" x2="559.383" y2="314.572"/>
	<g>
		
			<line fill="none" stroke="#2E3035" stroke-width="2.0478" stroke-linecap="round" stroke-linejoin="round" stroke-miterlimit="10" x1="533.949" y1="326.982" x2="489.768" y2="326.984"/>
		
			<line fill="none" stroke="#2E3035" stroke-width="2.0478" stroke-linecap="round" stroke-linejoin="round" stroke-miterlimit="10" x1="533.951" y1="338.938" x2="489.768" y2="338.938"/>
		
			<line fill="none" stroke="#2E3035" stroke-width="2.0478" stroke-linecap="round" stroke-linejoin="round" stroke-miterlimit="10" x1="533.951" y1="350.887" x2="489.768" y2="350.889"/>
	</g>
	<g>
		<polygon fill="#2E3035" points="556.467,309.682 466.127,309.252 466.125,262.73 556.475,263.156 		"/>
	</g>
	<path fill="#FFFFFF" d="M514.496,353.1l20.916,0.004c1.15,0,2.088-0.992,2.09-2.217c-0.002-1.217-0.943-2.207-2.092-2.205H514.5
		c-1.148-0.004-2.088,0.977-2.09,2.205C512.404,352.109,513.346,353.102,514.496,353.1z"/>
</g>
</svg>
